<svg width="32" height="32" viewBox="0 0 32 32" fill="none" xmlns="http://www.w3.org/2000/svg">
<g clip-path="url(#clip0_11_176)">
<path d="M10 16.575C10 17.1063 9.7875 17.6125 9.4125 17.9875L7.7375 19.6625C6.96875 20.4312 5.70625 20.375 4.65 20.1125C4.3625 20.0375 4.0625 20 3.75 20C1.68125 20 0 21.6812 0 23.75C0 25.8188 1.68125 27.5 3.75 27.5C4.14375 27.5 4.5 27.8563 4.5 28.25C4.5 30.3188 6.18125 32 8.25 32C10.3188 32 12 30.3188 12 28.25C12 27.9375 11.9625 27.6375 11.8875 27.3438C11.625 26.2875 11.5625 25.025 12.3375 24.2563L14.0125 22.5812C14.3875 22.2062 14.8938 21.9937 15.425 21.9937H21C21.3937 21.9937 21.775 21.975 22.1562 21.9312C22.9 21.8562 23.1812 20.9625 22.8312 20.3062C22.3 19.3188 22 18.1938 22 16.9937C22 13.125 25.1313 9.99375 29 9.99375C29.5 9.99375 29.9813 10.0437 30.45 10.1438C31.1813 10.3 31.9563 9.775 31.825 9.04375C30.9062 3.90625 26.4062 0 21 0C14.925 0 10 4.925 10 11V16.575Z" fill="black"/>
</g>
<defs>
<clipPath id="clip0_11_176">
<rect width="32" height="32" fill="white"/>
</clipPath>
</defs>
</svg>
