<svg width="32" height="32" viewBox="0 0 32 32" fill="none" xmlns="http://www.w3.org/2000/svg">
<g clip-path="url(#clip0_11_168)">
<path d="M26.2857 10.0001H26.2186C26.3839 8.7398 26.243 7.4632 25.8049 6.25396C25.3669 5.04472 24.6416 3.93017 23.6767 2.9834C22.7118 2.03663 21.5291 1.27903 20.2061 0.760292C18.8831 0.241552 17.4497 -0.0266113 16 -0.0266113C14.5502 -0.0266113 13.1169 0.241552 11.7939 0.760292C10.4709 1.27903 9.28815 2.03663 8.32326 2.9834C7.35837 3.93017 6.63311 5.04472 6.19506 6.25396C5.757 7.4632 5.61604 8.7398 5.78142 10.0001H5.71428C4.80496 10.0001 3.93289 10.3161 3.28991 10.8787C2.64693 11.4413 2.28571 12.2044 2.28571 13.0001C2.28571 13.7957 2.64693 14.5588 3.28991 15.1214C3.93289 15.684 4.80496 16.0001 5.71428 16.0001H26.2857C27.195 16.0001 28.0671 15.684 28.7101 15.1214C29.3531 14.5588 29.7143 13.7957 29.7143 13.0001C29.7143 12.2044 29.3531 11.4413 28.7101 10.8787C28.0671 10.3161 27.195 10.0001 26.2857 10.0001ZM13.9557 30.8557C14.1359 31.1974 14.4242 31.4868 14.7865 31.6896C15.1488 31.8925 15.5699 32.0003 16 32.0003C16.4301 32.0003 16.8512 31.8925 17.2135 31.6896C17.5758 31.4868 17.8641 31.1974 18.0443 30.8557L25.1428 18.0001H6.85713L13.9557 30.8557Z" fill="black"/>
</g>
<defs>
<clipPath id="clip0_11_168">
<rect width="32" height="32" fill="white"/>
</clipPath>
</defs>
</svg>
