<svg width="32" height="32" viewBox="0 0 32 32" fill="none" xmlns="http://www.w3.org/2000/svg">
<g clip-path="url(#clip0_2180_168)">
<mask id="mask0_2180_168" style="mask-type:luminance" maskUnits="userSpaceOnUse" x="0" y="0" width="32" height="32">
<path d="M32 0H0V32H32V0Z" fill="white"/>
</mask>
<g mask="url(#mask0_2180_168)">
<path d="M24 15C26.9444 15 29.3333 12.3125 29.3333 9C29.3333 5.6875 26.9444 3 24 3C22.0278 3 20.3 4.20625 19.3778 6H16.4556C17.5556 2.50625 20.5167 0 24 0C28.4167 0 32 4.03125 32 9C32 13.9688 28.4167 18 24 18C22.4611 18 21.0278 17.5125 19.8056 16.6688L21.7722 14.4563C22.45 14.8063 23.2056 15 24 15ZM0.0999989 8.925C0.305555 8.3625 0.794443 8 1.33333 8H21.7778C22.3167 8 22.8056 8.3625 23.0111 8.925C23.2167 9.4875 23.1056 10.1313 22.7222 10.5625L12.8889 21.625V29H16.4444C17.1833 29 17.7778 29.6688 17.7778 30.5C17.7778 31.3312 17.1833 32 16.4444 32H6.66667C5.92778 32 5.33333 31.3312 5.33333 30.5C5.33333 29.6688 5.92778 29 6.66667 29H10.2222V21.6187L0.388888 10.5625C0.00555444 10.1313 -0.105556 9.4875 0.0999989 8.925Z" fill="#FFD057"/>
</g>
</g>
<defs>
<clipPath id="clip0_2180_168">
<rect width="32" height="32" fill="white"/>
</clipPath>
</defs>
</svg>
