<svg width="37" height="34" viewBox="0 0 37 34" fill="none" xmlns="http://www.w3.org/2000/svg">
<path d="M10.3333 22H28.3333C29.4333 22 30.3333 22.9 30.3333 24C30.3333 25.1 29.4333 26 28.3333 26H8.33331C7.23331 26 6.33331 25.1 6.33331 24V4H2.33331C1.23331 4 0.333313 3.1 0.333313 2C0.333313 0.9 1.23331 0 2.33331 0H8.33331C9.43331 0 10.3333 0.9 10.3333 2V6H36.3333L28.3333 20H10.3333V22ZM9.33331 28C10.9933 28 12.3333 29.34 12.3333 31C12.3333 32.66 10.9933 34 9.33331 34C7.67331 34 6.33331 32.66 6.33331 31C6.33331 29.34 7.67331 28 9.33331 28ZM27.3333 28C28.9933 28 30.3333 29.34 30.3333 31C30.3333 32.66 28.9933 34 27.3333 34C25.6733 34 24.3333 32.66 24.3333 31C24.3333 29.34 25.6733 28 27.3333 28Z" fill="#FFD057"/>
</svg>
