<svg width="32" height="32" viewBox="0 0 32 32" fill="none" xmlns="http://www.w3.org/2000/svg">
<path d="M4 2C1.79375 2 0 3.79375 0 6C0 8.20625 1.79375 10 4 10H4.0625C4.29375 15.5562 8.875 20 14.5 20H18V8H4C2.89375 8 2 7.10625 2 6C2 4.89375 2.89375 4 4 4H29C29.55 4 30 3.55 30 3C30 2.45 29.55 2 29 2H4ZM14 28.5C14 29.3312 14.6687 30 15.5 30H20V25.4875L15.9937 24.0875C15.2125 23.8125 14.3562 24.225 14.0813 25.0063C13.8063 25.7875 14.2188 26.6438 15 26.9188L15.2812 27.0187C14.5625 27.1187 14 27.7437 14 28.5ZM22 29.9562C24.275 29.75 26.3438 28.8563 28.0063 27.4813L22.6 25.3188C22.4125 25.4312 22.2125 25.5187 22 25.5875V29.9562ZM29.5375 25.9375C31.075 24.0438 32 21.6313 32 19C32 18.2313 31.9187 17.4813 31.7687 16.7563L23.925 22.1938C23.975 22.4062 24 22.6313 24 22.8563C24 23.1438 23.9563 23.4187 23.8813 23.675L29.5375 25.9375ZM21 8H20V20H21.1437C21.7625 20 22.3375 20.2 22.8062 20.5312L31.15 14.7563C29.4875 10.7875 25.5688 8 21 8ZM10.5 12C10.5 11.6022 10.658 11.2206 10.9393 10.9393C11.2206 10.658 11.6022 10.5 12 10.5C12.3978 10.5 12.7794 10.658 13.0607 10.9393C13.342 11.2206 13.5 11.6022 13.5 12C13.5 12.3978 13.342 12.7794 13.0607 13.0607C12.7794 13.342 12.3978 13.5 12 13.5C11.6022 13.5 11.2206 13.342 10.9393 13.0607C10.658 12.7794 10.5 12.3978 10.5 12Z" fill="black"/>
</svg>
