<svg width="32" height="28" viewBox="0 0 32 28" fill="none" xmlns="http://www.w3.org/2000/svg">
<path d="M4 0C1.79375 0 0 1.79375 0 4C0 6.20625 1.79375 8 4 8H4.0625C4.29375 13.5562 8.875 18 14.5 18H18V6H4C2.89375 6 2 5.10625 2 4C2 2.89375 2.89375 2 4 2H29C29.55 2 30 1.55 30 1C30 0.45 29.55 0 29 0H4ZM14 26.5C14 27.3312 14.6687 28 15.5 28H20V23.4875L15.9937 22.0875C15.2125 21.8125 14.3562 22.225 14.0813 23.0063C13.8063 23.7875 14.2188 24.6438 15 24.9188L15.2812 25.0187C14.5625 25.1187 14 25.7437 14 26.5ZM22 27.9562C24.275 27.75 26.3438 26.8563 28.0063 25.4813L22.6 23.3188C22.4125 23.4312 22.2125 23.5187 22 23.5875V27.9562ZM29.5375 23.9375C31.075 22.0438 32 19.6313 32 17C32 16.2313 31.9187 15.4813 31.7687 14.7563L23.925 20.1938C23.975 20.4062 24 20.6313 24 20.8563C24 21.1438 23.9563 21.4187 23.8813 21.675L29.5375 23.9375ZM21 6H20V18H21.1437C21.7625 18 22.3375 18.2 22.8062 18.5312L31.15 12.7563C29.4875 8.7875 25.5688 6 21 6ZM10.5 10C10.5 9.6022 10.658 9.2206 10.9393 8.9393C11.2206 8.658 11.6022 8.5 12 8.5C12.3978 8.5 12.7794 8.658 13.0607 8.9393C13.342 9.2206 13.5 9.6022 13.5 10C13.5 10.3978 13.342 10.7794 13.0607 11.0607C12.7794 11.342 12.3978 11.5 12 11.5C11.6022 11.5 11.2206 11.342 10.9393 11.0607C10.658 10.7794 10.5 10.3978 10.5 10Z" fill="#FFD057"/>
</svg>
