<svg width="38" height="31" viewBox="0 0 38 31" fill="none" xmlns="http://www.w3.org/2000/svg">
<rect x="0.015625" width="37.7344" height="31" rx="5" fill="#FFC107"/>
<rect width="17.25" height="14" transform="translate(9.71875 9)" fill="#FFC107"/>
<path d="M15.6484 21.25C16.2439 21.25 16.7266 20.8582 16.7266 20.375C16.7266 19.8918 16.2439 19.5 15.6484 19.5C15.053 19.5 14.5703 19.8918 14.5703 20.375C14.5703 20.8582 15.053 21.25 15.6484 21.25Z" fill="#333333"/>
<path d="M23.1953 21.25C23.7907 21.25 24.2734 20.8582 24.2734 20.375C24.2734 19.8918 23.7907 19.5 23.1953 19.5C22.5999 19.5 22.1172 19.8918 22.1172 20.375C22.1172 20.8582 22.5999 21.25 23.1953 21.25Z" fill="#333333"/>
<path d="M25.109 12.3026C25.0333 12.2274 24.9378 12.1668 24.8297 12.1253C24.7215 12.0838 24.6033 12.0623 24.4837 12.0625H14.2297L14.0232 11.1115C14.0011 11.0102 13.9358 10.9184 13.8387 10.8523C13.7416 10.7862 13.6189 10.75 13.4922 10.75H11.3359C11.193 10.75 11.0559 10.7961 10.9548 10.8781C10.8537 10.9602 10.7969 11.0715 10.7969 11.1875C10.7969 11.3035 10.8537 11.4148 10.9548 11.4969C11.0559 11.5789 11.193 11.625 11.3359 11.625H13.04L14.5784 18.701C14.6004 18.8023 14.6657 18.8941 14.7628 18.9602C14.8599 19.0263 14.9826 19.0625 15.1094 19.0625H23.7344C23.8773 19.0625 24.0145 19.0164 24.1156 18.9344C24.2166 18.8523 24.2734 18.741 24.2734 18.625C24.2734 18.509 24.2166 18.3977 24.1156 18.3156C24.0145 18.2336 23.8773 18.1875 23.7344 18.1875H15.5615L15.3715 17.3125H23.5134C23.7003 17.3123 23.8814 17.2597 24.0261 17.1636C24.1707 17.0675 24.27 16.9337 24.3071 16.785L25.2774 12.8475C25.3008 12.7522 25.2978 12.6539 25.2687 12.5597C25.2396 12.4654 25.185 12.3776 25.109 12.3026Z" fill="black"/>
</svg>
