<?xml version="1.0" encoding="UTF-8"?>
<!DOCTYPE svg PUBLIC "-//W3C//DTD SVG 1.1//EN" "http://www.w3.org/Graphics/SVG/1.1/DTD/svg11.dtd">
<svg xmlns="http://www.w3.org/2000/svg" version="1.1" width="239px" height="237px" style="shape-rendering:geometricPrecision; text-rendering:geometricPrecision; image-rendering:optimizeQuality; fill-rule:evenodd; clip-rule:evenodd" xmlns:xlink="http://www.w3.org/1999/xlink">
<g><path style="opacity:0.999" fill="#165262" d="M 109.5,-0.5 C 116.167,-0.5 122.833,-0.5 129.5,-0.5C 158.54,2.77104 182.707,15.4377 202,37.5C 216.236,55.1861 226.902,74.8528 234,96.5C 243.37,148.974 225.537,189.141 180.5,217C 150.98,234.155 119.313,239.488 85.5,233C 60.5608,227.953 41.7274,214.453 29,192.5C 18.0052,173.689 9.83849,153.689 4.5,132.5C 0.786024,102.541 5.95269,73.874 20,46.5C 35.7807,22.3522 57.9474,7.85223 86.5,3C 94.3405,2.02456 102.007,0.857888 109.5,-0.5 Z"/></g>
<g><path style="opacity:1" fill="#e2bd40" d="M 133.5,45.5 C 137.527,45.2808 138.194,46.4475 135.5,49C 122.333,58.1667 109.167,67.3333 96,76.5C 97.6123,73.8609 99.779,71.3609 102.5,69C 113.018,61.3032 123.351,53.4699 133.5,45.5 Z"/></g>
<g><path style="opacity:1" fill="#e3bd40" d="M 144.5,57.5 C 146.167,57.5 147.833,57.5 149.5,57.5C 149.5,58.5 149.5,59.5 149.5,60.5C 133.376,65.9293 117.376,71.4293 101.5,77C 106.31,74.0935 111.31,71.4269 116.5,69C 125.974,65.2383 135.307,61.405 144.5,57.5 Z"/></g>
<g><path style="opacity:1" fill="#d1b344" d="M 100.5,85.5 C 99.209,85.7373 98.209,85.404 97.5,84.5C 101.19,84.3319 104.19,82.8319 106.5,80C 110.685,79.6691 114.685,78.8358 118.5,77.5C 122.315,78.8358 126.315,79.6691 130.5,80C 131.5,81 132.5,82 133.5,83C 136.289,83.2414 138.956,83.908 141.5,85C 136.785,86.3787 132.785,85.3787 129.5,82C 127.231,81.2419 125.064,81.4086 123,82.5C 122.517,81.552 122.351,80.552 122.5,79.5C 117.457,78.4308 113.623,80.0974 111,84.5C 110.517,83.552 110.351,82.552 110.5,81.5C 106.912,82.4788 103.579,83.8121 100.5,85.5 Z"/></g>
<g><path style="opacity:1" fill="#748153" d="M 97.5,84.5 C 98.209,85.404 99.209,85.7373 100.5,85.5C 116.5,86.1667 132.5,86.8333 148.5,87.5C 129.167,87.5 109.833,87.5 90.5,87.5C 92.9741,86.8953 95.3074,85.8953 97.5,84.5 Z"/></g>
<g><path style="opacity:1" fill="#fbc73c" d="M 90.5,87.5 C 109.833,87.5 129.167,87.5 148.5,87.5C 146.019,113.458 132.019,123.291 106.5,117C 96.3406,109.852 91.0073,100.019 90.5,87.5 Z"/></g>
<g><path style="opacity:1" fill="#e9bf40" d="M 152.5,132.5 C 157.167,132.5 161.833,132.5 166.5,132.5C 167.468,145.147 168.134,157.814 168.5,170.5C 168.167,175.833 167.833,181.167 167.5,186.5C 163.986,188.117 160.319,189.117 156.5,189.5C 156.5,185.5 156.5,181.5 156.5,177.5C 155.178,177.33 154.011,177.663 153,178.5C 152.501,182.152 152.335,185.818 152.5,189.5C 148.5,189.5 144.5,189.5 140.5,189.5C 142.195,171.134 144.195,152.8 146.5,134.5C 148.786,134.405 150.786,133.738 152.5,132.5 Z"/></g>
<g><path style="opacity:1" fill="#9b964d" d="M 193.5,132.5 C 188.167,132.833 182.833,133.167 177.5,133.5C 182.767,131.572 188.1,131.239 193.5,132.5 Z"/></g>
<g><path style="opacity:1" fill="#e0bb41" d="M 86.5,132.5 C 89.1873,132.336 91.854,132.503 94.5,133C 96.6667,133.833 98.1667,135.333 99,137.5C 101.109,153.557 100.775,169.557 98,185.5C 95.9205,187.123 93.7538,188.623 91.5,190C 86.8333,190.667 82.1667,190.667 77.5,190C 75.6667,189.5 74.5,188.333 74,186.5C 73.23,172.141 73.5633,157.807 75,143.5C 75.5163,140.966 76.683,138.8 78.5,137C 81.1915,135.395 83.8582,133.895 86.5,132.5 Z"/></g>
<g><path style="opacity:1" fill="#225561" d="M 84.5,137.5 C 87.5184,137.335 90.5184,137.502 93.5,138C 94.7014,138.903 95.5348,140.069 96,141.5C 96.6667,155.5 96.6667,169.5 96,183.5C 92.958,185.889 89.458,186.889 85.5,186.5C 83.5,186.333 81.5,186.167 79.5,186C 79,185.5 78.5,185 78,184.5C 77.3333,170.167 77.3333,155.833 78,141.5C 80.0129,139.752 82.1795,138.418 84.5,137.5 Z"/></g>
<g><path style="opacity:1" fill="#265661" d="M 151.5,136.5 C 155.167,136.5 158.833,136.5 162.5,136.5C 164.098,152.477 165.431,168.477 166.5,184.5C 164.5,184.5 162.5,184.5 160.5,184.5C 160.665,181.482 160.498,178.482 160,175.5C 157,172.833 154,172.833 151,175.5C 149.684,178.688 149.184,182.022 149.5,185.5C 148.167,185.5 146.833,185.5 145.5,185.5C 145.778,169.448 146.778,153.448 148.5,137.5C 149.791,137.737 150.791,137.404 151.5,136.5 Z"/></g>
<g><path style="opacity:1" fill="#f2c43e" d="M 84.5,145.5 C 87.0444,145.104 89.2111,145.771 91,147.5C 91.6667,157.167 91.6667,166.833 91,176.5C 88.633,179.932 85.9663,180.265 83,177.5C 82.3333,167.833 82.3333,158.167 83,148.5C 83.5133,147.473 84.0133,146.473 84.5,145.5 Z"/></g>
<g><path style="opacity:1" fill="#f0c23e" d="M 153.5,146.5 C 156.73,146.561 158.563,148.228 159,151.5C 159.667,156.5 159.667,161.5 159,166.5C 156.619,167.435 154.119,167.768 151.5,167.5C 151.334,161.491 151.501,155.491 152,149.5C 152.513,148.473 153.013,147.473 153.5,146.5 Z"/></g>
<g><path style="opacity:1" fill="#546f59" d="M 170.5,140.5 C 170.5,143.5 170.5,146.5 170.5,149.5C 172.167,149.5 173.833,149.5 175.5,149.5C 175.823,156.022 175.49,162.355 174.5,168.5C 174.5,162.5 174.5,156.5 174.5,150.5C 172.833,150.5 171.167,150.5 169.5,150.5C 169.187,146.958 169.521,143.625 170.5,140.5 Z"/></g>
<g><path style="opacity:1" fill="#ebc03f" d="M 57.5,132.5 C 61.1817,132.335 64.8484,132.501 68.5,133C 69.3333,133.833 70.1667,134.667 71,135.5C 71.4994,141.157 71.6661,146.824 71.5,152.5C 67.9975,153.917 64.3309,154.584 60.5,154.5C 60.6633,152.143 60.4966,149.81 60,147.5C 58.566,151.406 58.2327,155.406 59,159.5C 62.983,157.897 67.1496,157.23 71.5,157.5C 71.6982,167.204 71.1982,176.87 70,186.5C 63.5884,190.054 56.7551,191.22 49.5,190C 49,189.5 48.5,189 48,188.5C 45.6377,171.403 46.3044,154.403 50,137.5C 52.1699,135.177 54.6699,133.51 57.5,132.5 Z"/></g>
<g><path style="opacity:1" fill="#235561" d="M 54.5,137.5 C 58.8333,137.5 63.1667,137.5 67.5,137.5C 67.5,141.833 67.5,146.167 67.5,150.5C 66.1667,150.5 64.8333,150.5 63.5,150.5C 64.3286,145.499 62.3286,143.332 57.5,144C 56.8742,144.75 56.3742,145.584 56,146.5C 54.5575,155.793 54.2242,165.126 55,174.5C 55.5632,180.346 58.3965,181.846 63.5,179C 64.4558,175.606 64.7892,172.106 64.5,168.5C 63.5,168.5 62.5,168.5 61.5,168.5C 61.5,166.167 61.5,163.833 61.5,161.5C 63.8333,161.5 66.1667,161.5 68.5,161.5C 68.5,169.167 68.5,176.833 68.5,184.5C 64.5097,185.163 60.5097,185.83 56.5,186.5C 54.3066,186.674 52.4733,186.007 51,184.5C 48.7605,169.438 49.0939,154.438 52,139.5C 52.9947,138.934 53.828,138.267 54.5,137.5 Z"/></g>
<g><path style="opacity:1" fill="#eac03f" d="M 193.5,132.5 C 194.647,136.646 194.814,140.98 194,145.5C 191.959,146.423 189.792,146.756 187.5,146.5C 186.287,160.474 185.287,174.474 184.5,188.5C 181.388,190.184 178.054,190.85 174.5,190.5C 174.5,183.167 174.5,175.833 174.5,168.5C 175.49,162.355 175.823,156.022 175.5,149.5C 173.833,149.5 172.167,149.5 170.5,149.5C 170.5,146.5 170.5,143.5 170.5,140.5C 169.972,135.189 172.306,132.855 177.5,133.5C 182.833,133.167 188.167,132.833 193.5,132.5 Z"/></g>
<g><path style="opacity:1" fill="#245661" d="M 176.5,136.5 C 181.167,136.5 185.833,136.5 190.5,136.5C 190.5,138.833 190.5,141.167 190.5,143.5C 188.194,143.993 185.861,144.326 183.5,144.5C 182.737,158.487 182.404,172.487 182.5,186.5C 181.167,186.5 179.833,186.5 178.5,186.5C 178.5,172.833 178.5,159.167 178.5,145.5C 176.5,145.5 174.5,145.5 172.5,145.5C 172.5,142.833 172.5,140.167 172.5,137.5C 174.099,137.768 175.432,137.434 176.5,136.5 Z"/></g>
<g><path style="opacity:1" fill="#586f5a" d="M 154.5,154.5 C 156.402,157.337 157.069,160.671 156.5,164.5C 155.5,164.5 154.5,164.5 153.5,164.5C 153.46,161.119 153.793,157.786 154.5,154.5 Z"/></g>
<g><path style="opacity:1" fill="#3a605e" d="M 86.5,149.5 C 87.8222,152.768 88.4888,156.435 88.5,160.5C 88.7084,165.657 88.0417,170.657 86.5,175.5C 85.4621,166.841 85.4621,158.174 86.5,149.5 Z"/></g>
<g><path style="opacity:1" fill="#ebc03f" d="M 129.5,189.5 C 125.833,189.5 122.167,189.5 118.5,189.5C 118.5,179.167 118.5,168.833 118.5,158.5C 118.905,150.832 119.405,143.165 120,135.5C 126.64,133.52 133.473,132.52 140.5,132.5C 141.295,136.785 141.628,141.119 141.5,145.5C 137.751,145.751 134.085,146.417 130.5,147.5C 130.5,150.167 130.5,152.833 130.5,155.5C 133.518,155.296 136.518,154.963 139.5,154.5C 139.823,158.226 139.489,161.893 138.5,165.5C 135.607,166.74 132.773,168.074 130,169.5C 129.503,171.81 129.337,174.143 129.5,176.5C 132.545,176.492 135.545,176.159 138.5,175.5C 138.5,179.5 138.5,183.5 138.5,187.5C 135.574,188.461 132.574,189.127 129.5,189.5 Z"/></g>
<g><path style="opacity:1" fill="#1d5462" d="M 130.5,185.5 C 127.833,185.5 125.167,185.5 122.5,185.5C 122.5,172.833 122.5,160.167 122.5,147.5C 122.5,144.167 122.5,140.833 122.5,137.5C 127.5,137.5 132.5,137.5 137.5,137.5C 137.5,139.5 137.5,141.5 137.5,143.5C 133.785,143.196 130.285,143.863 127,145.5C 126.501,150.155 126.334,154.821 126.5,159.5C 129.833,159.5 133.167,159.5 136.5,159.5C 136.5,160.833 136.5,162.167 136.5,163.5C 133.314,163.895 130.314,164.895 127.5,166.5C 126.508,170.783 126.174,175.116 126.5,179.5C 129.833,179.5 133.167,179.5 136.5,179.5C 136.5,181.167 136.5,182.833 136.5,184.5C 134.5,184.833 132.5,185.167 130.5,185.5 Z"/></g>
<g><path style="opacity:1" fill="#2b5960" d="M 58.5,172.5 C 59.6491,172.791 60.3158,173.624 60.5,175C 60.1667,175.833 59.8333,176.667 59.5,177.5C 58.5481,175.955 58.2148,174.288 58.5,172.5 Z"/></g>
<g><path style="opacity:1" fill="#4e6e59" d="M 122.5,147.5 C 122.5,160.167 122.5,172.833 122.5,185.5C 125.167,185.5 127.833,185.5 130.5,185.5C 127.713,186.477 124.713,186.81 121.5,186.5C 121.171,173.323 121.505,160.323 122.5,147.5 Z"/></g>
<g><path style="opacity:1" fill="#b1a14a" d="M 118.5,158.5 C 118.5,168.833 118.5,179.167 118.5,189.5C 122.167,189.5 125.833,189.5 129.5,189.5C 125.702,190.483 121.702,190.817 117.5,190.5C 117.172,179.654 117.506,168.987 118.5,158.5 Z"/></g>
</svg>
