<svg width="32" height="32" viewBox="0 0 32 32" fill="none" xmlns="http://www.w3.org/2000/svg">
<g clip-path="url(#clip0_2180_156)">
<mask id="mask0_2180_156" style="mask-type:luminance" maskUnits="userSpaceOnUse" x="0" y="0" width="32" height="32">
<path d="M32 0H0V32H32V0Z" fill="white"/>
</mask>
<g mask="url(#mask0_2180_156)">
<path d="M10.0278 8.84375C12.2056 6.78125 15.1444 5 18.6667 5C22.1889 5 25.1278 6.78125 27.3056 8.84375C29.4778 10.9062 31.0222 13.3688 31.8056 15.0813C32.0667 15.6562 32.0667 16.3375 31.8056 16.9125C31.0222 18.625 29.4778 21.0875 27.3056 23.15C25.1278 25.2188 22.1889 27 18.6667 27C15.1444 27 12.2056 25.2188 10.0278 23.1562C9.12778 22.3 8.33333 21.375 7.65555 20.4625L2.67222 23.725C1.97778 24.1812 1.09444 24.0563 0.522225 23.4188C-0.0499972 22.7812 -0.166663 21.7938 0.233337 21.0063L2.77778 16L0.233337 10.9937C-0.166663 10.2062 -0.0444416 9.21875 0.527781 8.58125C1.1 7.94375 1.97778 7.81875 2.67778 8.275L7.66111 11.5437C8.33889 10.6312 9.13333 9.70625 10.0333 8.85L10.0278 8.84375ZM24.8889 16C24.8889 15.4696 24.7016 14.9609 24.3682 14.5858C24.0348 14.2107 23.5826 14 23.1111 14C22.6396 14 22.1874 14.2107 21.854 14.5858C21.5206 14.9609 21.3333 15.4696 21.3333 16C21.3333 16.5304 21.5206 17.0391 21.854 17.4142C22.1874 17.7893 22.6396 18 23.1111 18C23.5826 18 24.0348 17.7893 24.3682 17.4142C24.7016 17.0391 24.8889 16.5304 24.8889 16Z" fill="#FFD057"/>
</g>
</g>
<defs>
<clipPath id="clip0_2180_156">
<rect width="32" height="32" fill="white"/>
</clipPath>
</defs>
</svg>
