<svg width="34" height="34" viewBox="0 0 34 34" fill="none" xmlns="http://www.w3.org/2000/svg">
<path d="M23.3333 13.3333C23.3333 15.1014 22.631 16.7971 21.3807 18.0474C20.1305 19.2976 18.4348 20 16.6667 20C14.8986 20 13.2029 19.2976 11.9526 18.0474C10.7024 16.7971 10 15.1014 10 13.3333C10 11.5652 10.7024 9.86952 11.9526 8.61928C13.2029 7.36904 14.8986 6.66666 16.6667 6.66666C18.4348 6.66666 20.1305 7.36904 21.3807 8.61928C22.631 9.86952 23.3333 11.5652 23.3333 13.3333Z" fill="#FFD057"/>
<path fill-rule="evenodd" clip-rule="evenodd" d="M15.9867 33.32C7.0975 32.9633 0 25.6433 0 16.6667C0 7.46167 7.46167 0 16.6667 0C25.8717 0 33.3333 7.46167 33.3333 16.6667C33.3333 25.8717 25.8717 33.3333 16.6667 33.3333C16.5906 33.3338 16.5144 33.3338 16.4383 33.3333C16.2875 33.3333 16.1367 33.3283 15.9867 33.32ZM5.97167 27.1833C5.84705 26.8255 5.80464 26.4441 5.84757 26.0677C5.8905 25.6912 6.01767 25.3292 6.21965 25.0086C6.42163 24.6879 6.69322 24.4169 7.01427 24.2156C7.33532 24.0143 7.69758 23.888 8.07417 23.8458C14.5708 23.1267 18.8025 23.1917 25.2675 23.8608C25.6446 23.9001 26.0077 24.0249 26.3293 24.2257C26.6509 24.4266 26.9224 24.6981 27.1231 25.0198C27.3239 25.3414 27.4486 25.7046 27.4878 26.0817C27.5269 26.4588 27.4795 26.8398 27.3492 27.1958C30.1199 24.3924 31.6716 20.6083 31.6667 16.6667C31.6667 8.3825 24.9508 1.66667 16.6667 1.66667C8.3825 1.66667 1.66667 8.3825 1.66667 16.6667C1.66667 20.7633 3.30917 24.4767 5.97167 27.1833Z" fill="#FFD057"/>
</svg>
