<svg width="22" height="29" viewBox="0 0 22 29" fill="none" xmlns="http://www.w3.org/2000/svg">
<path d="M4.95831 28.25V15.6688C3.78956 15.3479 2.80965 14.7063 2.01856 13.7438C1.22748 12.7813 0.832398 11.6583 0.833315 10.375V0.750001H3.58331V10.375H4.95831V0.750001H7.70831V10.375H9.08331V0.750001H11.8333V10.375C11.8333 11.6583 11.4378 12.7813 10.6467 13.7438C9.85561 14.7063 8.87615 15.3479 7.70831 15.6688V28.25H4.95831ZM18.7083 28.25V17.25H14.5833V7.625C14.5833 5.72292 15.2539 4.10133 16.5949 2.76025C17.936 1.41917 19.5571 0.749084 21.4583 0.750001V28.25H18.7083Z" fill="#FFD057"/>
</svg>
