<svg width="34" height="33" viewBox="0 0 34 33" fill="none" xmlns="http://www.w3.org/2000/svg">
<path d="M9.95831 30.25V17.6688C8.78956 17.3479 7.80965 16.7063 7.01856 15.7438C6.22748 14.7813 5.8324 13.6583 5.83331 12.375V2.75H8.58331V12.375H9.95831V2.75H12.7083V12.375H14.0833V2.75H16.8333V12.375C16.8333 13.6583 16.4378 14.7813 15.6467 15.7438C14.8556 16.7063 13.8761 17.3479 12.7083 17.6688V30.25H9.95831ZM23.7083 30.25V19.25H19.5833V9.625C19.5833 7.72292 20.2539 6.10133 21.5949 4.76025C22.936 3.41917 24.5571 2.74908 26.4583 2.75V30.25H23.7083Z" fill="#FFD057"/>
</svg>
