<svg width="32" height="32" viewBox="0 0 32 32" fill="none" xmlns="http://www.w3.org/2000/svg">
<g clip-path="url(#clip0_2180_162)">
<mask id="mask0_2180_162" style="mask-type:luminance" maskUnits="userSpaceOnUse" x="0" y="0" width="32" height="32">
<path d="M32 0H0V32H32V0Z" fill="white"/>
</mask>
<g mask="url(#mask0_2180_162)">
<path d="M5.5 0C4.66875 0 4 0.66875 4 1.5C4 3.93125 5.4625 5.2125 6.44375 6.06875L6.5125 6.13125C7.53125 7.01875 8 7.49375 8 8.5C8 9.33125 8.66875 10 9.5 10C10.3313 10 11 9.33125 11 8.5C11 6.06875 9.5375 4.7875 8.55625 3.93125L8.4875 3.86875C7.46875 2.98125 7 2.50625 7 1.5C7 0.66875 6.33125 0 5.5 0ZM2 12C0.89375 12 0 12.8938 0 14V26C0 29.3125 2.6875 32 6 32H18C21.3125 32 24 29.3125 24 26H25C28.8687 26 32 22.8687 32 19C32 15.1313 28.8687 12 25 12H2ZM24 16H25C26.6562 16 28 17.3438 28 19C28 20.6562 26.6562 22 25 22H24V16ZM14 1.5C14 0.66875 13.3313 0 12.5 0C11.6687 0 11 0.66875 11 1.5C11 3.93125 12.4625 5.2125 13.4438 6.06875L13.5125 6.13125C14.5312 7.01875 15 7.49375 15 8.5C15 9.33125 15.6687 10 16.5 10C17.3312 10 18 9.33125 18 8.5C18 6.06875 16.5375 4.7875 15.5562 3.93125L15.4875 3.86875C14.4688 2.98125 14 2.50625 14 1.5Z" fill="#FFD057"/>
</g>
</g>
<defs>
<clipPath id="clip0_2180_162">
<rect width="32" height="32" fill="white"/>
</clipPath>
</defs>
</svg>
