<svg width="25" height="16" viewBox="0 0 25 16" fill="none" xmlns="http://www.w3.org/2000/svg">
<path d="M15.5625 10C12.6839 10 6.9375 11.33 6.9375 14V16H24.1875V14C24.1875 11.33 18.4411 10 15.5625 10ZM5.85938 6V3H3.70312V6H0.46875V8H3.70312V11H5.85938V8H9.09375V6M15.5625 8C16.7062 8 17.8031 7.57857 18.6119 6.82843C19.4206 6.07828 19.875 5.06087 19.875 4C19.875 2.93913 19.4206 1.92172 18.6119 1.17157C17.8031 0.421427 16.7062 0 15.5625 0C14.4188 0 13.3219 0.421427 12.5131 1.17157C11.7044 1.92172 11.25 2.93913 11.25 4C11.25 5.06087 11.7044 6.07828 12.5131 6.82843C13.3219 7.57857 14.4188 8 15.5625 8Z" fill="#212529"/>
</svg>
